HIERARCHY
ROOT Hips
{
  OFFSET -348.227 92.6761 320.338
  CHANNELS 6 Xposition Yposition Zposition Zrotation Xrotation Yrotation
  JOINT ToSpine
  {
    OFFSET -0.0105055 1.38907 -7.13956
    CHANNELS 3 Zrotation Xrotation Yrotation
    JOINT Spine
    {
      OFFSET 0.0105055 10 1
      CHANNELS 3 Zrotation Xrotation Yrotation
      JOINT Spine1
      {
        OFFSET 0 12 1.60637
        CHANNELS 3 Zrotation Xrotation Yrotation
        JOINT Neck
        {
          OFFSET 0 27 2.26658
          CHANNELS 3 Zrotation Xrotation Yrotation
          JOINT Head
          {
            OFFSET 0 9 2.12705
            CHANNELS 3 Zrotation Xrotation Yrotation
            End Site
            {
              OFFSET 0 11 2
            }
          }
        }
        JOINT LeftShoulder
        {
          OFFSET 8 19.6109 2.86452
          CHANNELS 3 Zrotation Xrotation Yrotation
          JOINT LeftArm
          {
            OFFSET 12 1 0.681055
            CHANNELS 3 Zrotation Xrotation Yrotation
            JOINT LeftForeArm
            {
              OFFSET 19 0 -1.52608
              CHANNELS 3 Zrotation Xrotation Yrotation
              JOINT LeftHand
              {
                OFFSET 23 0 0
                CHANNELS 3 Zrotation Xrotation Yrotation
                End Site
                {
                  OFFSET 10 0 0
                }
              }
            }
          }
        }
        JOINT RightShoulder
        {
          OFFSET -8 19.6109 2.86452
          CHANNELS 3 Zrotation Xrotation Yrotation
          JOINT RightArm
          {
            OFFSET -12 1 0.681055
            CHANNELS 3 Zrotation Xrotation Yrotation
            JOINT RightForeArm
            {
              OFFSET -19 0 -1.52608
              CHANNELS 3 Zrotation Xrotation Yrotation
              JOINT RightHand
              {
                OFFSET -23 0 0
                CHANNELS 3 Zrotation Xrotation Yrotation
                End Site
                {
                  OFFSET -10 0 0
                }
              }
            }
          }
        }
      }
    }
  }
  JOINT LeftUpLeg
  {
    OFFSET 9 -7.17245 0
    CHANNELS 3 Zrotation Xrotation Yrotation
    JOINT LeftLeg
    {
      OFFSET 0 -44.1113 0
      CHANNELS 3 Zrotation Xrotation Yrotation
      JOINT LeftFoot
      {
        OFFSET 0 -36.1829 0
        CHANNELS 3 Zrotation Xrotation Yrotation
        JOINT LeftToeBase
        {
          OFFSET 0 -4.84184 13
          CHANNELS 3 Zrotation Xrotation Yrotation
          End Site
          {
            OFFSET 0 1 6
          }
        }
      }
    }
  }
  JOINT RightUpLeg
  {
    OFFSET -9 -7.17245 0
    CHANNELS 3 Zrotation Xrotation Yrotation
    JOINT RightLeg
    {
      OFFSET 0 -44.0551 0
      CHANNELS 3 Zrotation Xrotation Yrotation
      JOINT RightFoot
      {
        OFFSET 0 -36.1469 0
        CHANNELS 3 Zrotation Xrotation Yrotation
        JOINT RightToeBase
        {
          OFFSET 0 -4.92256 13
          CHANNELS 3 Zrotation Xrotation Yrotation
          End Site
          {
            OFFSET 0 1 6
          }
        }
      }
    }
  }
}
MOTION
Frames:	10
Frame Time:	0.0333333
-49.3087 104.233 31.634 -5.7959 -3.00768 118.478 0 0 0 7.50427 3.95238 6.70066 -12.807 2.66402 9.35548 10.0556 25.3527 -1.30625 -1.64074 2.52614 4.20953 -12.9669 1.6909 -4.94202 -6.59486 4.36404 2.18411 -3.40462 -16.3129 -15.1876 -2.89688 0.0648444 -2.36913 8.37024 2.57011 12.5841 20.4731 -10.0318 2.94375 1.07346 -1.46064 36.3179 4.84897 0.293633 6.8583 9.48771 -41.1012 17.1096 0.127258 42.5065 -3.27907 12.1971 -11.0082 1.18172 0.766241 -1.4903 -2.93136 -1.59198 7.37233 -7.36537 0.343652 13.3807 14.3434 -15.9073 11.3501 1.6159 4.60221 -17.7465 -5.64485 
-43.4636 105.803 25.8801 -6.36355 -4.96433 115.107 0 0 0 11.5756 -1.46511 8.82152 -14.4636 6.76605 11.6073 8.70776 28.2675 -0.953322 -1.45338 0.889855 4.05554 -12.5335 1.39022 -3.56887 -6.55211 5.79404 10.0414 -3.05661 -15.236 -15.3604 -5.5411 0.0483754 -1.11305 7.424 2.23473 11.2934 19.1066 -6.23004 2.55417 1.2812 -1.58706 38.9158 3.91167 0.321586 9.56502 11.2968 -36.8344 19.9281 -0.666246 26.0046 -4.657 11.0046 -11.4508 1.10677 0.877003 -5.18871 -2.75872 -2.66012 9.49844 -9.59697 1.33909 18.6114 8.30457 -19.3877 11.8981 2.04367 5.02103 -20.2518 -8.41525 
-37.7016 106.425 20.0102 -3.83403 -6.6286 112.018 0 0 0 16.7732 -2.98861 10.0842 -15.4556 9.48055 13.0342 6.52674 31.9084 -0.00233253 -1.02041 -0.730583 3.97578 -12.8407 1.06576 -1.86914 -7.73756 3.97479 18.7468 -2.4695 -12.5062 -16.281 -7.4798 0.0222272 -0.33694 6.60577 2.2217 11.9654 17.802 -4.29785 -0.97292 -0.303848 0.273618 48.0509 3.81916 0.137 4.16847 13.2822 -29.8081 13.6989 -2.77776 11.3654 -0.233296 8.249 -12.1208 0.878027 0.821306 -3.79194 -2.79233 -3.86157 14.5441 -10.9228 0.590359 25.9635 9.39198 -18.5121 8.07046 1.33576 4.72354 -18.4861 -6.9334 
-31.8639 106.089 14.109 -0.711768 -7.89235 109.92 0 0 0 20.6161 -4.13907 10.9565 -14.8577 11.9738 13.7853 5.3291 35.6846 0.904577 -1.23956 -2.09498 4.49647 -11.4515 0.680909 -0.139967 -11.0095 2.58902 26.3903 -3.51931 -14.6021 -17.4913 -7.23046 -0.036868 0.608777 6.18554 2.05692 11.1962 17.6509 -1.48823 -3.63482 2.10194 -1.53185 53.9191 1.87334 0.0468222 3.17133 15.0646 -24.3958 11.6992 -1.12344 4.88353 -0.396627 5.4673 -13.4024 0.639421 -0.0389223 -1.51918 0.651166 -5.99425 20.788 -10.6496 -0.0592141 31.0702 13.8699 -17.2346 7.64464 1.1533 4.77027 -18.7811 -7.05754 
-26.0612 104.683 8.36514 1.28943 -8.75147 109.235 0 0 0 23.1364 -6.43708 11.5839 -13.8714 14.3794 13.9722 5.57559 39.4601 0.615585 -1.98076 -3.2453 4.69284 -9.83438 0.327207 1.59454 -13.7134 1.37891 31.7481 -3.60245 -14.9858 -17.2217 -7.62428 -0.115568 1.7272 5.82396 1.80905 9.74419 18.3129 -0.270172 -6.78859 -0.236005 0.146164 58.3784 3.90202 0.12426 3.62439 15.4347 -21.1691 11.7384 -0.206857 3.3814 0.415305 3.29262 -13.629 0.3974 -0.17054 -3.42586 1.85984 -9.09311 26.9717 -10.3023 -0.0830536 32.8497 16.0932 -14.8609 6.46664 0.851151 4.85614 -18.9068 -5.81476 
-20.8129 102.403 3.3399 2.2052 -9.56206 109.021 0 0 0 24.7519 -7.46982 11.9436 -13.962 14.756 14.014 7.69268 41.5916 -0.920139 -3.23169 -3.2588 4.81328 -7.48996 0.0445692 3.23534 -14.5492 -2.62995 36.7595 -3.41795 -12.4111 -19.0557 -7.08546 -0.063833 0.990102 7.30051 1.97814 9.7004 19.2928 0.75144 -13.0726 1.06863 -0.545661 62.9149 3.84716 0.124193 3.71348 16.1413 -19.5184 13.2346 -1.49659 5.8433 1.99623 4.555 -11.6258 0.455449 0.0569305 -4.82596 1.38078 -11.3131 31.2917 -7.76605 -0.00173912 34.8166 12.7076 -14.117 1.23255 0.159887 4.72381 -18.2409 -5.3209 
-16.045 99.6521 -1.22066 2.40876 -9.50958 108.432 0 0 0 23.8659 -8.11479 12.2214 -12.7599 15.671 13.7424 7.47197 40.4656 -0.848461 -2.90519 -2.59031 4.60449 -8.43214 -0.120615 4.20128 -15.9596 -2.92525 38.8606 -3.64025 -13.752 -18.3923 -5.58806 -0.0847543 1.79107 7.95212 2.02987 9.54647 22.026 1.33427 -18.9794 1.44942 -0.652566 65.7353 4.30341 0.173722 4.49278 16.6535 -19.1734 14.967 -3.18867 12.1267 -0.0467122 2.97979 -10.3011 0.27752 0.819642 -1.31586 -3.39481 -13.8715 33.3015 -3.75568 0.0469837 38.1851 7.29781 -18.654 -2.14429 -0.365306 5.05953 -20.0062 -6.64823 
-11.5027 97.8672 -5.39516 1.21301 -7.09835 109.074 0 0 0 19.8044 -7.76742 11.673 -12.8481 14.8583 13.3767 6.18197 38.9695 0.239483 -1.76176 -3.11277 4.60486 -11.981 0.267065 2.13863 -16.3749 -4.0809 40.1098 -3.46877 -15.0639 -17.1051 -4.67505 -0.0956161 2.31307 7.7815 2.06228 9.85589 27.5465 0.903898 -25.3258 -5.38015 2.23088 67.5523 5.84629 0.072987 1.57138 14.5291 -23.1012 24.0782 -2.13028 23.8366 -10.8893 3.40406 -3.87687 0.0736082 0.298662 2.59434 -1.70695 -16.4914 32.6803 0.610968 0.0407684 43.4572 -0.470775 -19.5295 -4.51049 -0.762304 4.91571 -19.1681 -5.84612 
-7.38512 94.9256 -9.32319 0.134802 -4.16061 113.237 0 0 0 13.4099 -6.46431 8.76216 -11.0016 12.6279 10.8669 5.97304 34.0519 0.73429 -2.55518 -0.683224 4.91424 -18.3469 0.732804 0.56711 -17.925 -4.71201 32.493 -2.19059 -16.3706 -11.6542 -5.65084 -0.0658056 1.38232 10.5643 2.08686 8.22347 34.3693 -0.708318 -25.8981 -8.77163 4.19192 64.6577 7.26817 0.0571038 0.822227 10.798 -27.8958 24.335 -0.121212 40.1412 -14.9778 6.64103 -12.5833 0.779698 0.0521815 3.44173 -1.03134 -16.6809 30.1717 1.12511 -0.261922 55.327 -7.19652 -21.2557 -9.3598 -1.77325 5.02726 -19.6202 -5.60651 
-3.72241 93.5625 -12.2478 -0.602488 0.960992 116.754 0 0 0 5.58861 -2.73978 5.9665 -10.31 10.927 8.6376 6.45003 31.9943 1.40536 -2.04464 0.346468 5.67274 -22.9856 1.28298 -0.875916 -22.9063 -1.60144 20.8561 -3.21317 -22.3932 -9.04566 -6.36978 -0.119979 2.13455 14.4782 2.59696 8.57044 42.0068 -0.504358 -24.7379 -5.84627 3.94342 56.1233 4.80638 0.0838401 2.14058 4.20964 -25.5158 22.8024 0.0419812 45.1284 -17.3902 10.6812 -17.9457 1.68607 0.164716 1.94667 -1.1362 -16.6154 24.0799 2.96053 -0.0393084 71.0437 -8.75881 -27.3226 -10.4095 -2.52993 5.31779 -21.1592 -6.55125 
